<?xml version="1.0" encoding="UTF-8" standalone="no"?>

<svg xmlns="http://www.w3.org/2000/svg" width="14.2222in" height="14.2222in" viewBox="0 0 1280 1280">
  <path id="Selection" fill="orange" stroke="black" stroke-width="2" d="M 675.00,807.00
           C 699.10,798.64 719.38,779.76 720.91,753.00
             721.85,736.48 710.12,719.93 698.00,709.92
             672.29,688.70 634.19,683.66 603.00,673.66
             545.87,655.33 498.72,621.68 482.73,561.00
             478.70,545.70 478.82,531.62 479.00,516.00
             479.51,472.29 511.34,426.26 548.00,404.45
             559.34,397.71 573.32,391.77 586.00,388.14
             591.51,386.57 606.20,384.10 609.72,381.15
             613.41,378.07 612.99,373.35 613.00,369.00
             613.02,356.60 611.14,339.56 618.11,329.00
             630.54,310.17 660.11,311.06 671.10,331.00
             676.19,340.25 674.87,360.16 675.00,371.00
             675.06,375.76 675.22,379.98 680.05,382.35
             680.05,382.35 704.00,388.44 704.00,388.44
             716.89,392.29 734.33,400.14 746.00,406.85
             751.02,409.73 757.80,414.26 761.98,418.17
             764.12,420.17 766.95,422.77 765.83,426.00
             764.77,429.07 757.65,434.50 755.00,437.04
             755.00,437.04 724.00,466.00 724.00,466.00
             720.73,469.21 713.77,476.49 709.00,476.44
             705.45,476.40 699.29,472.08 696.00,470.31
             689.98,467.07 682.50,464.17 676.00,462.00
             676.00,462.00 675.00,478.00 675.00,478.00
             675.00,478.00 675.00,495.00 675.00,495.00
             675.00,495.00 674.00,512.00 674.00,512.00
             673.99,520.63 674.96,528.15 670.47,536.00
             659.59,555.01 628.03,555.27 617.40,535.00
             612.54,525.74 613.00,515.11 613.00,505.00
             613.00,505.00 613.00,462.00 613.00,462.00
             580.35,468.59 551.83,501.77 562.04,536.00
             564.18,543.16 568.16,550.19 572.81,556.00
             592.39,580.47 621.48,587.29 650.00,595.42
             686.24,605.75 720.82,615.43 751.00,639.45
             812.61,688.47 820.60,779.37 767.83,838.00
             753.96,853.41 736.98,865.09 718.00,873.28
             706.09,878.42 687.92,884.41 675.00,885.00
             675.00,902.26 677.83,930.46 665.79,943.96
             653.37,957.89 630.54,955.37 619.53,941.00
             614.40,934.29 613.01,924.24 613.00,916.00
             613.00,916.00 612.04,899.00 612.04,899.00
             611.88,895.57 612.37,891.28 610.15,888.39
             606.90,884.16 594.32,882.45 589.00,880.99
             576.39,877.53 560.09,870.78 549.00,863.94
             520.23,846.17 498.31,820.58 482.31,791.00
             471.36,770.75 456.82,740.61 477.04,721.09
             479.72,718.50 482.61,716.46 486.00,714.90
             490.64,712.76 493.94,712.06 499.00,712.00
             506.02,711.92 510.33,711.61 517.00,714.47
             530.50,720.25 539.76,739.76 547.42,752.00
             561.60,774.64 583.82,802.20 612.00,806.00
             612.00,806.00 613.00,791.00 613.00,791.00
             613.18,775.15 610.06,750.44 621.21,738.04
             632.86,725.09 656.17,726.23 667.32,739.17
             672.84,745.58 673.99,752.87 674.04,761.00
             674.04,761.00 674.04,772.00 674.04,772.00
             674.04,772.00 675.00,783.00 675.00,783.00
             675.00,783.00 675.00,807.00 675.00,807.00 Z
           M 693.00,563.00
           C 695.90,556.86 703.11,550.89 708.00,546.00
             708.00,546.00 732.00,521.00 732.00,521.00
             732.00,521.00 748.01,504.00 748.01,504.00
             748.01,504.00 797.09,454.00 797.09,454.00
             797.09,454.00 816.72,434.00 816.72,434.00
             816.72,434.00 845.83,404.00 845.83,404.00
             847.93,401.68 854.12,395.09 853.89,392.04
             853.46,386.11 842.20,386.01 838.00,386.00
             838.00,386.00 813.00,386.00 813.00,386.00
             808.43,385.99 801.94,385.88 798.04,383.27
             790.96,378.52 790.23,367.49 795.56,361.18
             800.92,354.83 820.56,350.44 829.00,348.15
             829.00,348.15 908.00,326.15 908.00,326.15
             919.05,323.16 933.44,316.83 944.00,323.85
             955.51,331.50 953.98,339.02 954.00,351.00
             954.00,351.00 955.00,368.00 955.00,368.00
             955.00,368.00 955.00,413.00 955.00,413.00
             955.00,413.00 954.00,430.00 954.00,430.00
             954.00,430.00 954.00,469.00 954.00,469.00
             953.99,474.57 953.80,480.25 950.35,484.96
             943.71,494.01 930.68,493.99 923.33,485.90
             919.01,481.15 918.08,476.17 918.00,470.00
             917.91,462.12 920.31,440.59 908.00,440.45
             903.75,440.40 898.85,445.24 896.00,448.01
             896.00,448.01 874.00,470.00 874.00,470.00
             874.00,470.00 841.04,503.00 841.04,503.00
             841.04,503.00 831.99,513.00 831.99,513.00
             831.99,513.00 785.00,560.00 785.00,560.00
             785.00,560.00 764.00,582.00 764.00,582.00
             761.44,584.56 756.38,590.21 753.00,591.08
             748.46,592.24 739.09,585.25 735.00,582.80
             721.68,574.82 707.27,569.05 693.00,563.00 Z
           M 560.00,704.00
           C 560.00,704.00 598.00,715.00 598.00,715.00
             594.56,722.33 583.33,733.56 576.00,737.00
             570.67,728.81 561.48,713.43 560.00,704.00 Z
           M 453.00,812.00
           C 453.00,812.00 463.89,827.00 463.89,827.00
             463.89,827.00 481.85,849.00 481.85,849.00
             484.72,852.27 491.34,858.43 490.16,863.00
             488.80,868.23 473.79,881.97 469.42,887.00
             469.42,887.00 449.01,908.00 449.01,908.00
             449.01,908.00 423.00,935.00 423.00,935.00
             411.71,946.29 405.15,955.38 388.00,954.99
             367.39,954.51 352.49,935.07 357.93,915.00
             360.37,905.98 370.47,894.61 377.00,888.00
             377.00,888.00 408.00,856.00 408.00,856.00
             408.00,856.00 427.83,836.00 427.83,836.00
             435.25,827.80 443.63,817.86 453.00,812.00 Z" />
</svg>